<svg xmlns="http://www.w3.org/2000/svg" width="610" height="421.553" viewBox="0 0 610 421.553">
  <g id="Grupo_901145" data-name="Grupo 901145" transform="translate(-250 -429)">
    <g id="Grupo_901147" data-name="Grupo 901147" transform="translate(762.684 756.708)">
      <g id="Grupo_901145-2" data-name="Grupo 901145" transform="translate(32.342 0)">
        <path id="Trazado_629297" data-name="Trazado 629297" d="M2311.085,1723.044h3.188l-7-36.168h0l-.173-.9-8.459-43.731h0l-.617-3.188h-35.519l8.933,46.179.316,1.635h0l4.034,20.852.283,1.461h0l2.679,13.855h3.188l-2.68-13.855h29.144Zm-7.613-39.356h-29.144l-3.7-19.125h29.144Zm-8.016-41.439,3.7,19.125h-29.144l-3.7-19.125ZM2278.645,1706l-3.7-19.126h29.144l3.7,19.126Z" transform="translate(-2262.508 -1639.062)" fill="#462a51"/>
      </g>
      <g id="Grupo_901146" data-name="Grupo 901146" transform="translate(0 0)">
        <path id="Trazado_629298" data-name="Trazado 629298" d="M2148.951,1709.189H2178.1l-2.68,13.855h3.187l2.68-13.855h0l.283-1.461,4.034-20.852h0l.316-1.635,8.933-46.179H2159.33l-.617,3.188h0l-8.459,43.731-.173.9h0l-7,36.168h3.188Zm8.633-44.626h29.144l-3.7,19.125h-29.144Zm33.46-22.313-3.7,19.125H2158.2l3.7-19.125ZM2149.568,1706l3.7-19.126h29.144l-3.7,19.126Z" transform="translate(-2143.084 -1639.062)" fill="#5bb3fc"/>
      </g>
    </g>
    <g id="Grupo_901149" data-name="Grupo 901149" transform="translate(801.907 524.002)">
      <path id="Trazado_629299" data-name="Trazado 629299" d="M2335.911,779.8h-43.338a4.66,4.66,0,0,0-4.659,4.659V830.1l9.358-9.357h38.634a4.659,4.659,0,0,0,4.659-4.659V784.45A4.654,4.654,0,0,0,2335.911,779.8Z" transform="translate(-2287.914 -779.796)" fill="#f7d157"/>
      <g id="Grupo_901148" data-name="Grupo 901148" transform="translate(11.601 11.556)">
        <path id="Trazado_629300" data-name="Trazado 629300" d="M2331.837,878.642h13.039a1.084,1.084,0,0,1,0,2.168h-13.039a1.084,1.084,0,1,1,0-2.168Z" transform="translate(-2330.75 -863.428)" fill="#fff"/>
        <path id="Trazado_629301" data-name="Trazado 629301" d="M2331.837,850.553H2359a1.088,1.088,0,0,1,0,2.176h-27.158a1.088,1.088,0,0,1,0-2.176Z" transform="translate(-2330.75 -842.946)" fill="#fff"/>
        <path id="Trazado_629302" data-name="Trazado 629302" d="M2331.837,822.465H2359a1.088,1.088,0,0,1,0,2.175h-27.158a1.088,1.088,0,0,1,0-2.175Z" transform="translate(-2330.75 -822.465)" fill="#fff"/>
      </g>
    </g>
    <g id="Grupo_901151" data-name="Grupo 901151" transform="translate(775.299 501.989)">
      <path id="Trazado_629303" data-name="Trazado 629303" d="M2191.2,698.513h38.69a1.533,1.533,0,0,1,1.536,1.531v38.372L2224,730.994h-32.8a1.538,1.538,0,0,1-1.536-1.537V700.044A1.533,1.533,0,0,1,2191.2,698.513Z" transform="translate(-2189.665 -698.513)" fill="#f25a46"/>
      <g id="Grupo_901150" data-name="Grupo 901150" transform="translate(9.293 9.166)">
        <path id="Trazado_629304" data-name="Trazado 629304" d="M2276.554,776.916h-10.342a.86.86,0,0,0,0,1.72h10.342a.86.86,0,1,0,0-1.72Z" transform="translate(-2254.15 -764.849)" fill="#fff"/>
        <path id="Trazado_629305" data-name="Trazado 629305" d="M2246.385,754.637h-21.542a.863.863,0,1,0,0,1.725h21.542a.863.863,0,0,0,0-1.725Z" transform="translate(-2223.981 -748.603)" fill="#fff"/>
        <path id="Trazado_629306" data-name="Trazado 629306" d="M2246.385,732.357h-21.542a.863.863,0,1,0,0,1.725h21.542a.863.863,0,0,0,0-1.725Z" transform="translate(-2223.981 -732.357)" fill="#fff"/>
      </g>
    </g>
    <g id="Grupo_901153" data-name="Grupo 901153" transform="translate(825.936 478.071)">
      <path id="Trazado_629307" data-name="Trazado 629307" d="M2407.695,610.195h-28.039a3.015,3.015,0,0,0-3.015,3.015v29.534l6.054-6.054h25a3.015,3.015,0,0,0,3.014-3.014V613.206A3.011,3.011,0,0,0,2407.695,610.195Z" transform="translate(-2376.641 -610.195)" fill="#48a4ef"/>
      <g id="Grupo_901152" data-name="Grupo 901152" transform="translate(7.506 7.477)">
        <path id="Trazado_629308" data-name="Trazado 629308" d="M2405.059,674.148h8.436a.7.7,0,0,1,0,1.4h-8.436a.7.7,0,1,1,0-1.4Z" transform="translate(-2404.356 -664.305)" fill="#fff"/>
        <path id="Trazado_629309" data-name="Trazado 629309" d="M2405.059,655.975h17.571a.7.7,0,1,1,0,1.407h-17.571a.7.7,0,0,1,0-1.407Z" transform="translate(-2404.356 -651.053)" fill="#fff"/>
        <path id="Trazado_629310" data-name="Trazado 629310" d="M2405.059,637.8h17.571a.7.7,0,1,1,0,1.407h-17.571a.7.7,0,0,1,0-1.407Z" transform="translate(-2404.356 -637.802)" fill="#fff"/>
      </g>
    </g>
    <g id="Grupo_901155" data-name="Grupo 901155" transform="translate(290.572 463.775)">
      <path id="Trazado_629311" data-name="Trazado 629311" d="M407.461,557.407H478.7a7.659,7.659,0,0,1,7.659,7.659v75.04l-15.382-15.382H407.47a7.659,7.659,0,0,1-7.659-7.659V565.057A7.65,7.65,0,0,1,407.461,557.407Z" transform="translate(-399.811 -557.407)" fill="#efc942"/>
      <g id="Grupo_901154" data-name="Grupo 901154" transform="translate(19.26 18.996)">
        <path id="Trazado_629312" data-name="Trazado 629312" d="M579.888,719.9H558.453a1.782,1.782,0,0,0,0,3.565h21.434a1.782,1.782,0,1,0,0-3.565Z" transform="translate(-533.455 -694.887)" fill="#fff"/>
        <path id="Trazado_629313" data-name="Trazado 629313" d="M517.362,673.722H472.718a1.788,1.788,0,0,0,0,3.576h44.645a1.788,1.788,0,0,0,0-3.576Z" transform="translate(-470.93 -661.217)" fill="#fff"/>
        <path id="Trazado_629314" data-name="Trazado 629314" d="M517.362,627.548H472.718a1.788,1.788,0,0,0,0,3.576h44.645a1.788,1.788,0,0,0,0-3.576Z" transform="translate(-470.93 -627.548)" fill="#fff"/>
      </g>
    </g>
    <g id="Grupo_901157" data-name="Grupo 901157" transform="translate(351.787 429)">
      <path id="Trazado_629315" data-name="Trazado 629315" d="M671.952,429h-41.63a4.476,4.476,0,0,0-4.476,4.476v43.849l8.989-8.989h37.111a4.476,4.476,0,0,0,4.476-4.476V433.47A4.47,4.47,0,0,0,671.952,429Z" transform="translate(-625.846 -429)" fill="#75c9ad"/>
      <g id="Grupo_901156" data-name="Grupo 901156" transform="translate(11.144 11.1)">
        <path id="Trazado_629316" data-name="Trazado 629316" d="M668.039,523.951h12.525a1.041,1.041,0,0,1,0,2.083H668.039a1.041,1.041,0,1,1,0-2.083Z" transform="translate(-666.994 -509.337)" fill="#fff"/>
        <path id="Trazado_629317" data-name="Trazado 629317" d="M668.039,496.969h26.088a1.045,1.045,0,0,1,0,2.09H668.039a1.045,1.045,0,0,1,0-2.09Z" transform="translate(-666.994 -489.662)" fill="#fff"/>
        <path id="Trazado_629318" data-name="Trazado 629318" d="M668.039,469.987h26.088a1.045,1.045,0,0,1,0,2.09H668.039a1.045,1.045,0,0,1,0-2.09Z" transform="translate(-666.994 -469.987)" fill="#fff"/>
      </g>
    </g>
    <g id="Grupo_901163" data-name="Grupo 901163" transform="translate(250 553.035)">
      <g id="Grupo_901162" data-name="Grupo 901162" transform="translate(112.249 0)">
        <path id="Trazado_629319" data-name="Trazado 629319" d="M755.234,1043.307s-17.37-1.431-20.481-1.613-6.66-5.475-6.66-5.475l5.924-2.865.791,2.335,20.168,4.955Z" transform="translate(-710.865 -993.719)" fill="#fba587"/>
        <rect id="Rectángulo_302036" data-name="Rectángulo 302036" width="3.033" height="5.108" transform="translate(9.737 158.012)" fill="#ffbda9"/>
        <g id="Grupo_901158" data-name="Grupo 901158" transform="translate(8.64 161.168)">
          <path id="Trazado_629320" data-name="Trazado 629320" d="M705.118,1484.11l-4.242-2c-.5-.007-1.179.912-2.226,1.094-.878.152-1.259-.629-1.767-.345-.293.164-.426,2.277-.5,2.5,0,0,10.262.78,11.228-.374C707.613,1484.984,708.019,1484.017,705.118,1484.11Z" transform="translate(-696.385 -1482.114)" fill="#16336d"/>
          <path id="Trazado_629321" data-name="Trazado 629321" d="M707.808,1490.546l-.194-.453h0c-.1-.28-.562-.687-2.492-.624l-.229,1.438v.018h0a83.126,83.126,0,0,1-8.5-.209v1.18s4.77.1,7.86.2a5.346,5.346,0,0,0,3.334-.718A.711.711,0,0,0,707.808,1490.546Z" transform="translate(-696.385 -1487.472)" fill="#c1e2f4"/>
        </g>
        <rect id="Rectángulo_302037" data-name="Rectángulo 302037" width="3.033" height="5.108" transform="translate(26.291 158.145) rotate(-4.727)" fill="#ffbda9"/>
        <g id="Grupo_901159" data-name="Grupo 901159" transform="translate(25.4 161.168)">
          <path id="Trazado_629322" data-name="Trazado 629322" d="M767,1484.11l-4.242-2c-.5-.007-1.179.912-2.226,1.094-.878.152-1.259-.629-1.767-.345-.293.164-.426,2.277-.5,2.5,0,0,10.262.78,11.229-.374C769.5,1484.984,769.9,1484.017,767,1484.11Z" transform="translate(-758.27 -1482.114)" fill="#16336d"/>
          <path id="Trazado_629323" data-name="Trazado 629323" d="M769.693,1490.546l-.194-.453h0c-.1-.28-.562-.687-2.492-.624l-.229,1.438v.018h0a83.126,83.126,0,0,1-8.5-.209v1.18s4.77.1,7.86.2a5.348,5.348,0,0,0,3.334-.718A.711.711,0,0,0,769.693,1490.546Z" transform="translate(-758.27 -1487.472)" fill="#c1e2f4"/>
        </g>
        <path id="Trazado_629324" data-name="Trazado 629324" d="M735.782,1110.934a69.848,69.848,0,0,1,2.554,13.408c.639,7.342.639,41.341.639,41.341l.638,43.256H735.3s-4.948-28.571-5.427-30.806-.638-13.089-.638-13.089l-2.873-53.95Z" transform="translate(-709.605 -1050.288)" fill="#2e8fd8"/>
        <path id="Trazado_629325" data-name="Trazado 629325" d="M695.436,1110.345h14.046s-.319,14.206-.8,18.516-5.108,32.881-5.746,35.754-6.544,43.894-6.544,43.894h-3.831s-1.916-29.848-1.437-34.158a86.9,86.9,0,0,1,2.394-11.013s-4.15-34.956-3.033-42.777S695.436,1110.345,695.436,1110.345Z" transform="translate(-683.305 -1049.859)" fill="#5bb3fc"/>
        <path id="Trazado_629326" data-name="Trazado 629326" d="M678.788,919.573s-.7,6.7-3.7,7.453c-4.2,1.059-7.833,1.818-8.242,4.647-.483,3.335,2.818,2.841,2.411,4.165s-1.994,1.4-3.256,2.445c-1.353,1.115-2.334,3.838-.568,5.445,1.589,1.445,3.617.646,5.346-.271,1.188-.63-.259,1.788-.851,2.918a3.646,3.646,0,0,0,2.209,4.54,5.072,5.072,0,0,0,6.5-2.577l7.078-17.885,1.647-6.434-7.541-3.38Z" transform="translate(-664.48 -910.751)" fill="#3e2447"/>
        <path id="Trazado_629327" data-name="Trazado 629327" d="M716.891,895.915c-.011,5.4.171,9.422,5.279,9.432s10.523-4.975,10.535-10.375-2.644-7.962-7.752-7.972S716.9,890.515,716.891,895.915Z" transform="translate(-702.697 -887)" fill="#3e2447"/>
        <g id="Grupo_901160" data-name="Grupo 901160" transform="translate(17.239 11.063)">
          <path id="Trazado_629328" data-name="Trazado 629328" d="M733.88,939.763h-5.746l2.792-11.914,4.391,2.975Z" transform="translate(-728.134 -927.849)" fill="#ffbda9"/>
        </g>
        <path id="Trazado_629329" data-name="Trazado 629329" d="M710.918,971.149a18.33,18.33,0,0,1,3.348-5.729l5.591.941s7.821,9.258,7.821,12.769c0,1.589-2.157,7.915-2.873,11.811a111.6,111.6,0,0,0-1.756,14.046l-14.365-.16S709.59,974.8,710.918,971.149Z" transform="translate(-696.713 -944.182)" fill="#f25a46"/>
        <path id="Trazado_629330" data-name="Trazado 629330" d="M739.452,919.85c2.254.222,3.826-3.913,4.162-6.167s.4-6.925.4-6.925L732.5,905.635l-.657,6.689C731.854,915.814,737.139,919.623,739.452,919.85Z" transform="translate(-713.596 -900.588)" fill="#ffbda9"/>
        <path id="Trazado_629331" data-name="Trazado 629331" d="M732.286,892.824c-.876,4.626-6.012,5.767-12.638,2.577,0,0,.921,9.007-.2,11.88s-7.051,8.948-7.821,10.056l3.4-26.954,6.09-3.326S733.532,886.243,732.286,892.824Z" transform="translate(-698.862 -887.018)" fill="#3e2447"/>
        <path id="Trazado_629332" data-name="Trazado 629332" d="M825.961,1064.762c-.066.67.759,1.131,2.235,1.277a2.856,2.856,0,0,0,2.714-.958c.87-.87-1.94-1.093-3.416-1.239S826.027,1064.092,825.961,1064.762Z" transform="translate(-782.226 -1015.928)" fill="#fba587"/>
        <path id="Trazado_629333" data-name="Trazado 629333" d="M820.6,1030.106c-.652,1-1.147,1.424-.043,2.145a2.912,2.912,0,0,0,3.723.123c1.5-1.055-.124-2.39-1.228-3.111S821.25,1029.107,820.6,1030.106Z" transform="translate(-777.811 -990.498)" fill="#ffba9f"/>
        <path id="Trazado_629334" data-name="Trazado 629334" d="M837.114,1034.751l-4.3-1.813a.263.263,0,0,0-.322.1l-.308.471a.263.263,0,0,0,.147.4l4.61,1.342a.263.263,0,0,0,.335-.222h0A.263.263,0,0,0,837.114,1034.751Z" transform="translate(-786.734 -993.4)" fill="#ffba9f"/>
        <path id="Trazado_629335" data-name="Trazado 629335" d="M826.56,1056.761a7.693,7.693,0,0,1,1.915-1.277c.639-.16,3.511.8,3.511.8a3.265,3.265,0,0,1-.8.8C830.71,1057.4,826.56,1056.761,826.56,1056.761Z" transform="translate(-782.666 -1009.843)" fill="#fba587"/>
        <g id="Grupo_901161" data-name="Grupo 901161" transform="translate(34.265 28.043)">
          <path id="Trazado_629336" data-name="Trazado 629336" d="M809.753,1060.518l-17.874-1.177a.939.939,0,0,1-.875-1h0a.939.939,0,0,1,1-.875l17.874,1.178a.939.939,0,0,1,.875,1h0A.939.939,0,0,1,809.753,1060.518Z" transform="translate(-791.002 -1039.343)" fill="#192e60"/>
          <path id="Trazado_629337" data-name="Trazado 629337" d="M861,1010.61l-1.377-.348,4.822-19.074a.77.77,0,0,1,.889-.62h0a.77.77,0,0,1,.488.968Z" transform="translate(-841.039 -990.549)" fill="#192e60"/>
        </g>
        <path id="Trazado_629338" data-name="Trazado 629338" d="M753.372,1032.635s-19.9,8.583-22.905,7.769-3.511-7.5-3.511-7.5l6.544-1.277.319,2.554,19.952-3.99Z" transform="translate(-710.036 -991.411)" fill="#ffbda9"/>
      </g>
      <rect id="Rectángulo_302038" data-name="Rectángulo 302038" width="43.909" height="116.371" transform="translate(110.957 165.562)" fill="#fff666"/>
      <rect id="Rectángulo_302039" data-name="Rectángulo 302039" width="51.79" height="64.905" transform="translate(90.691 188.863)" fill="#fff666"/>
      <rect id="Rectángulo_302040" data-name="Rectángulo 302040" width="51.698" height="71.731" transform="translate(66.014 210.202)" fill="#fff666"/>
      <rect id="Rectángulo_302041" data-name="Rectángulo 302041" width="38.676" height="52.956" transform="translate(39.465 228.977)" fill="#fff666"/>
      <rect id="Rectángulo_302042" data-name="Rectángulo 302042" width="32.956" height="34.946" transform="translate(18.874 246.987)" fill="#fff666"/>
      <rect id="Rectángulo_302043" data-name="Rectángulo 302043" width="51.831" height="19.727" transform="translate(0 262.208)" fill="#fff666"/>
      <rect id="Rectángulo_302044" data-name="Rectángulo 302044" width="48.279" height="64.254" transform="translate(139.105 217.679)" fill="#fff666"/>
    </g>
    <g id="Grupo_901164" data-name="Grupo 901164" transform="translate(369.24 775.008)">
      <path id="Trazado_629339" data-name="Trazado 629339" d="M758.063,1715.717l-34.036.29-6.815-9.375-24.6.21a2.336,2.336,0,0,0-2.316,2.355l.491,57.548c.093.006.184.012.276.011l13.176-36.9a2.108,2.108,0,0,1,2.019-1.576l54.248-.462-.083-9.794A2.33,2.33,0,0,0,758.063,1715.717Z" transform="translate(-690.292 -1706.632)" fill="#1c417c"/>
      <path id="Trazado_629340" data-name="Trazado 629340" d="M755.577,1796.943l-61.769.526,10.542-46.929,61.769-.526Z" transform="translate(-692.856 -1738.265)" fill="#fff"/>
      <path id="Trazado_629341" data-name="Trazado 629341" d="M757.343,1803.42l-61.769.526,11.813-47.056,61.769-.526Z" transform="translate(-694.144 -1742.896)" fill="#d2eeff"/>
      <path id="Trazado_629342" data-name="Trazado 629342" d="M767.891,1784.67l-60.284.514a2.111,2.111,0,0,0-2.026,1.577l-13.374,37.657a2.113,2.113,0,0,0,2.062,2.641l60.285-.514a2.1,2.1,0,0,0,2.019-1.576l13.372-37.658C769.935,1785.974,769.281,1784.658,767.891,1784.67Z" transform="translate(-691.639 -1763.535)" fill="#ce3e76"/>
    </g>
    <g id="Grupo_901169" data-name="Grupo 901169" transform="translate(431.836 440.322)">
      <rect id="Rectángulo_302045" data-name="Rectángulo 302045" width="266.577" height="386.069" transform="translate(39.465 12.583)" fill="#24487c"/>
      <rect id="Rectángulo_302046" data-name="Rectángulo 302046" width="281.875" height="392.361" transform="translate(12.011 6.292)" fill="#3476b7"/>
      <g id="Grupo_901165" data-name="Grupo 901165" transform="translate(0 0)">
        <path id="Trazado_629343" data-name="Trazado 629343" d="M1203.3,869.46H921.427V470.807h224.036l57.839,27.454Z" transform="translate(-921.427 -470.807)" fill="#345995"/>
        <path id="Trazado_629344" data-name="Trazado 629344" d="M1805.7,498.261l-29.17,12.011-29.17-39.465Z" transform="translate(-1523.685 -470.807)" fill="#507cbc"/>
      </g>
      <g id="Grupo_901166" data-name="Grupo 901166" transform="translate(16.47 80.074)">
        <rect id="Rectángulo_302047" data-name="Rectángulo 302047" width="4.902" height="22.791" rx="2.451" fill="#f7d157"/>
        <rect id="Rectángulo_302048" data-name="Rectángulo 302048" width="4.902" height="22.791" rx="2.451" transform="translate(0 211.623)" fill="#f7d157"/>
      </g>
      <g id="Grupo_901167" data-name="Grupo 901167" transform="translate(57.241 204.188)">
        <rect id="Rectángulo_302049" data-name="Rectángulo 302049" width="187.126" height="4.19" fill="#a6eaff"/>
        <rect id="Rectángulo_302050" data-name="Rectángulo 302050" width="187.126" height="4.19" transform="translate(0 17.807)" fill="#a6eaff"/>
        <rect id="Rectángulo_302051" data-name="Rectángulo 302051" width="187.126" height="4.19" transform="translate(0 35.615)" fill="#a6eaff"/>
        <rect id="Rectángulo_302052" data-name="Rectángulo 302052" width="187.126" height="4.19" transform="translate(0 53.422)" fill="#a6eaff"/>
        <rect id="Rectángulo_302053" data-name="Rectángulo 302053" width="187.126" height="4.19" transform="translate(0 71.229)" fill="#a6eaff"/>
        <rect id="Rectángulo_302054" data-name="Rectángulo 302054" width="187.126" height="4.19" transform="translate(0 89.036)" fill="#a6eaff"/>
        <rect id="Rectángulo_302055" data-name="Rectángulo 302055" width="187.126" height="4.19" transform="translate(0 106.844)" fill="#a6eaff"/>
        <rect id="Rectángulo_302056" data-name="Rectángulo 302056" width="187.126" height="4.19" transform="translate(0 124.651)" fill="#a6eaff"/>
        <rect id="Rectángulo_302057" data-name="Rectángulo 302057" width="18.779" height="5.814" transform="translate(84.174 146.326)" fill="#a6eaff"/>
      </g>
      <g id="Grupo_901168" data-name="Grupo 901168" transform="translate(57.409 66.152)">
        <path id="Trazado_629345" data-name="Trazado 629345" d="M1297.79,717.021v25.1a16.484,16.484,0,0,1-1.545,7.387,10.82,10.82,0,0,1-4.434,4.753,13.644,13.644,0,0,1-6.829,1.633q-5.957,0-9.382-3.635t-3.493-9.955V717.021h7.9v25.468q.134,6.295,4.971,6.294a4.435,4.435,0,0,0,3.695-1.58q1.253-1.581,1.254-5.136V717.021Z" transform="translate(-1234.546 -716.494)" fill="#fff"/>
        <path id="Trazado_629346" data-name="Trazado 629346" d="M1399.092,743.756a4.1,4.1,0,0,0-1.22-3.16,14.312,14.312,0,0,0-4.288-2.344,37.717,37.717,0,0,1-5.016-2.344q-6.337-3.661-6.337-10.061a10.108,10.108,0,0,1,1.579-5.623,10.477,10.477,0,0,1,4.467-3.793,15.094,15.094,0,0,1,6.493-1.357,13.275,13.275,0,0,1,6.3,1.475,10.556,10.556,0,0,1,4.333,4.2,12.416,12.416,0,0,1,1.545,6.229h-7.837a5.084,5.084,0,0,0-1.221-3.635,4.33,4.33,0,0,0-3.3-1.29,4.8,4.8,0,0,0-3.325,1.093,3.54,3.54,0,0,0,.123,5.452,15.866,15.866,0,0,0,4.725,2.476,26.859,26.859,0,0,1,5.553,2.752,11.306,11.306,0,0,1,5.284,9.876,10.035,10.035,0,0,1-3.224,7.9q-3.225,2.871-8.845,2.871a15.3,15.3,0,0,1-7.176-1.672,11.386,11.386,0,0,1-4.837-4.583,13.528,13.528,0,0,1-1.623-6.7h7.882a6.51,6.51,0,0,0,1.354,4.544q1.354,1.461,4.4,1.461a4.518,4.518,0,0,0,3.079-.987A3.494,3.494,0,0,0,1399.092,743.756Z" transform="translate(-1314.127 -715.075)" fill="#fff"/>
        <path id="Trazado_629347" data-name="Trazado 629347" d="M1511.266,739.091h-12.36v9.165h14.6v7.111h-22.458V717.021h22.5v7.137h-14.644v8.086h12.36Z" transform="translate(-1394.191 -716.494)" fill="#fff"/>
        <path id="Trazado_629348" data-name="Trazado 629348" d="M1597.909,741.8h-4.254v13.563H1585.8V717.021h12.83q5.8,0,9.069,3.026t3.269,8.55a14.213,14.213,0,0,1-1.377,6.63,10.4,10.4,0,0,1-4.31,4.262l6.806,15.483v.4h-8.419Zm-4.254-7.111h4.971a4.094,4.094,0,0,0,3.37-1.386,5.962,5.962,0,0,0,1.131-3.868,6.026,6.026,0,0,0-1.142-3.894,4.064,4.064,0,0,0-3.359-1.413h-4.971Z" transform="translate(-1463.281 -716.494)" fill="#fff"/>
        <path id="Trazado_629349" data-name="Trazado 629349" d="M1143.733,918.612l7.277,26.679,7.255-26.679h10.345v38.346h-7.882V948l.761-18.33-7.882,27.285h-5.195l-7.9-27.311L1141.27,948v8.954h-7.859V918.612Z" transform="translate(-1133.411 -863.49)" fill="#fff"/>
        <path id="Trazado_629350" data-name="Trazado 629350" d="M1295.015,949.794h-10.77l-1.881,7.164h-8.4l11.957-38.346h7.389l12.046,38.346h-8.442Zm-8.89-7.137h7.009l-3.515-13.3Z" transform="translate(-1235.902 -863.49)" fill="#fff"/>
        <path id="Trazado_629351" data-name="Trazado 629351" d="M1425.876,956.958h-7.814L1406.507,933.1v23.861h-7.859V918.612h7.859l11.532,23.861V918.612h7.837Z" transform="translate(-1326.817 -863.49)" fill="#fff"/>
        <path id="Trazado_629352" data-name="Trazado 629352" d="M1542.813,918.612v25.1a16.483,16.483,0,0,1-1.545,7.387,10.825,10.825,0,0,1-4.434,4.754,13.651,13.651,0,0,1-6.829,1.633q-5.957,0-9.382-3.635t-3.493-9.955V918.612h7.9v25.467q.133,6.3,4.971,6.295a4.434,4.434,0,0,0,3.695-1.58q1.253-1.581,1.254-5.136V918.612Z" transform="translate(-1413.211 -863.49)" fill="#fff"/>
        <path id="Trazado_629353" data-name="Trazado 629353" d="M1639.957,949.794h-10.77l-1.881,7.164h-8.4l11.957-38.346h7.389l12.046,38.346h-8.442Zm-8.89-7.137h7.009l-3.515-13.3Z" transform="translate(-1487.427 -863.49)" fill="#fff"/>
        <path id="Trazado_629354" data-name="Trazado 629354" d="M1751.449,949.847h13.682v7.111H1743.59V918.612h7.859Z" transform="translate(-1578.341 -863.49)" fill="#fff"/>
      </g>
    </g>
    <g id="Grupo_901176" data-name="Grupo 901176" transform="translate(698.364 552.997)">
      <g id="Grupo_901170" data-name="Grupo 901170" transform="translate(107.063 52.788)">
        <path id="Trazado_629355" data-name="Trazado 629355" d="M2300.914,1092.831l5.373.143.43-11.193-5.445,2.317Z" transform="translate(-2300.914 -1081.781)" fill="#ffba9f"/>
        <path id="Trazado_629356" data-name="Trazado 629356" d="M2307.183,1083.964l-.048-1.984-5.319,2.263-.155,3.782,5.367-.035Z" transform="translate(-2301.459 -1081.926)" fill="#f3937a"/>
      </g>
      <path id="Trazado_629357" data-name="Trazado 629357" d="M2289.969,1116.051l10.1-.39-.734-3.176-7.194.12Z" transform="translate(-2185.87 -1051.382)" fill="#c1e2f4"/>
      <rect id="Rectángulo_302058" data-name="Rectángulo 302058" width="4.048" height="5.257" transform="translate(57.151 79.437) rotate(-55.586)" fill="#ffba9f"/>
      <path id="Trazado_629358" data-name="Trazado 629358" d="M2173.514,1132.331c2.507,1.986,4.008,6.164,2.481,8.042,0,0-15.747,15.917-21.842,18.512s-28.186-11.675-28.186-11.675l2.959-5.312s19.77,7.444,22.18,5.841,13.606-15.085,13.606-15.085C2166.239,1130.776,2171.007,1130.345,2173.514,1132.331Z" transform="translate(-2066.283 -1064.904)" fill="#ce3e76"/>
      <g id="Grupo_901173" data-name="Grupo 901173" transform="translate(0 0)">
        <path id="Trazado_629359" data-name="Trazado 629359" d="M2114.9,1163.187l-1.913-1.978c-.956-.989-1.789,2.3-1.617,3.67s3.654,2.59,3.858,2.01A17.9,17.9,0,0,0,2114.9,1163.187Z" transform="translate(-2055.624 -1086.777)" fill="#ffba9f"/>
        <path id="Trazado_629360" data-name="Trazado 629360" d="M2118.914,1156.835a2.163,2.163,0,0,0-1.411-2.595c-1.943-.828-2.781-4.247-3.705-3.876s.941,4.092,1.553,4.848S2118.553,1157.627,2118.914,1156.835Z" transform="translate(-2057.225 -1078.982)" fill="#ffba9f"/>
        <g id="Grupo_901172" data-name="Grupo 901172">
          <rect id="Rectángulo_302059" data-name="Rectángulo 302059" width="3.56" height="18.114" transform="matrix(0.864, -0.503, 0.503, 0.864, 35.057, 45.351)" fill="#2f2a4f"/>
          <path id="Trazado_629361" data-name="Trazado 629361" d="M1933.126,886.93a25.665,25.665,0,1,0,23.722,27.477A25.671,25.671,0,0,0,1933.126,886.93Z" transform="translate(-1905.584 -886.86)" fill="#2f2a4f"/>
          <g id="Grupo_901171" data-name="Grupo 901171" transform="translate(2.903 2.903)">
            <path id="Trazado_629362" data-name="Trazado 629362" d="M1940.731,897.643a22.762,22.762,0,1,0,21.039,24.369A22.767,22.767,0,0,0,1940.731,897.643Z" transform="translate(-1916.304 -897.581)" fill="#d9faff"/>
            <path id="Trazado_629363" data-name="Trazado 629363" d="M1982.333,939.643l-23.252-39.126a22.763,22.763,0,0,1,23.252,39.126Z" transform="translate(-1947.496 -897.581)" fill="#a6dfff"/>
            <path id="Trazado_629364" data-name="Trazado 629364" d="M1997.873,923.96c2.127.861,4.337.359,4.935-1.12s-.64-3.376-2.767-4.237-4.337-.359-4.936,1.12S1995.746,923.1,1997.873,923.96Z" transform="translate(-1973.654 -912.603)" fill="#fff"/>
          </g>
          <path id="Trazado_629365" data-name="Trazado 629365" d="M2079.445,1129.232l2.949-1.715c.672-.391,1-1.082.731-1.543l-17.157-29.495-5.383,3.131,17.157,29.495C2078.01,1129.566,2078.772,1129.623,2079.445,1129.232Z" transform="translate(-2018.607 -1039.71)" fill="#f25a46"/>
        </g>
        <path id="Trazado_629366" data-name="Trazado 629366" d="M2094.421,1170.361c.868,1.108,2.17,1.537,2.909.959s-.152-2.949-1.02-4.057-1.385-.534-2.123.044S2093.553,1169.253,2094.421,1170.361Z" transform="translate(-2042.751 -1090.864)" fill="#ffba9f"/>
      </g>
      <g id="Grupo_901175" data-name="Grupo 901175" transform="translate(101.115 39.032)">
        <rect id="Rectángulo_302060" data-name="Rectángulo 302060" width="4.22" height="0.634" transform="translate(0.58 9.695) rotate(-11.775)" fill="#462a51"/>
        <path id="Trazado_629367" data-name="Trazado 629367" d="M2283.973,1053.636s-4.369,11.226-.065,13.21,9.379-3.972,9.379-3.972l1.153-8.557Z" transform="translate(-2281.183 -1047.501)" fill="#ffba9f"/>
        <path id="Trazado_629368" data-name="Trazado 629368" d="M2322.109,1053.656l-1.707-.327-.334-5.69,1.558-2.735s-.551-1.652.967-1.7,3.1,2.179,3.1,4.244C2325.692,1051.463,2322.109,1053.656,2322.109,1053.656Z" transform="translate(-2308.933 -1039.896)" fill="#2f2a4f"/>
        <path id="Trazado_629369" data-name="Trazado 629369" d="M2321.5,1077l-.161-.031.842-4.39,1.211.232a.925.925,0,0,1,.734,1.082l-.292,1.524A1.993,1.993,0,0,1,2321.5,1077Z" transform="translate(-2309.856 -1061.314)" fill="#ffba9f"/>
        <path id="Trazado_629370" data-name="Trazado 629370" d="M2293.637,1037.7c-.253,2.031-2.909,3.373-10.114,1.233-4.251-1.263-5.277-5.036-4.142-6.74,1.531-2.3,4.333-.706,8.735-.159S2293.889,1035.667,2293.637,1037.7Z" transform="translate(-2278.952 -1030.984)" fill="#2f2a4f"/>
        <g id="Grupo_901174" data-name="Grupo 901174" transform="translate(0.411 9.647)">
          <path id="Trazado_629371" data-name="Trazado 629371" d="M2280.553,1066.73l-.078.348a.23.23,0,0,0,.058.208l.123.128a.158.158,0,0,1,.039.15,3.012,3.012,0,0,0-.04,1.267c.13.7,1.03,1.1,1.706,1.248a2.191,2.191,0,0,0,.623.065,1.769,1.769,0,0,0,1-.766,2.518,2.518,0,0,0,.428-.879.162.162,0,0,1,.1-.116.793.793,0,0,1,.8.178.16.16,0,0,1,.042.148,2.534,2.534,0,0,0,.014.977,1.767,1.767,0,0,0,.582,1.119,2.189,2.189,0,0,0,.591.206c.676.151,1.662.17,2.075-.4a3.023,3.023,0,0,0,.5-1.164.156.156,0,0,1,.1-.119l.166-.064a.228.228,0,0,0,.141-.163l.078-.349a.16.16,0,0,0-.122-.191l-.5-.111a.367.367,0,0,0-.025-.03,5.028,5.028,0,0,0-2.577-.48c-.08.006-.154.014-.224.025a2.107,2.107,0,0,1-.477.029,4.481,4.481,0,0,1-.639-.1,4.537,4.537,0,0,1-.62-.185,2.106,2.106,0,0,1-.419-.229q-.087-.059-.192-.118a5.029,5.029,0,0,0-2.537-.661c-.012,0-.023.011-.035.016l-.5-.111A.159.159,0,0,0,2280.553,1066.73Zm5.251,1.706c.026-.033.145-.145.6-.179a6.246,6.246,0,0,1,1.658.15,1.846,1.846,0,0,1,.672.24c.2.2.113,1.091-.379,1.775-.419.583-1.888.323-2.243.111a1.5,1.5,0,0,1-.432-.905A1.647,1.647,0,0,1,2285.8,1068.436Zm-4.425-1.43a5.073,5.073,0,0,1,2.275.638c.4.225.459.376.468.417a1.646,1.646,0,0,1-.4,1.131,1.507,1.507,0,0,1-.776.636c-.411.04-1.851-.349-1.983-1.054C2280.814,1067.944,2281.111,1067.1,2281.38,1067.005Z" transform="translate(-2280.47 -1066.605)" fill="#462a51"/>
        </g>
        <rect id="Rectángulo_302061" data-name="Rectángulo 302061" width="4.22" height="0.634" transform="matrix(0.979, -0.204, 0.204, 0.979, 9.038, 11.594)" fill="#462a51"/>
      </g>
      <path id="Trazado_629372" data-name="Trazado 629372" d="M2254.788,1611.644h-3.273v-4.838h3.7Z" transform="translate(-2157.83 -1411.831)" fill="#ffba9f"/>
      <path id="Trazado_629373" data-name="Trazado 629373" d="M2334.43,1611.644h3.272v-4.838H2334Z" transform="translate(-2217.979 -1411.831)" fill="#ffba9f"/>
      <path id="Trazado_629374" data-name="Trazado 629374" d="M2345.909,1625.589v-1.138c-4.175-1.062-7.418-2.372-9.533-3.984a3.059,3.059,0,0,1-3.7,0,3.357,3.357,0,0,0-.854,1.565,19.647,19.647,0,0,0,.285,3.557h2.7v-1.138C2337.678,1625.595,2341.684,1625.693,2345.909,1625.589Z" transform="translate(-2216.368 -1421.792)" fill="#16336d"/>
      <path id="Trazado_629375" data-name="Trazado 629375" d="M2247.325,1284.211h28.885c-.1,26.138-1.4,56.149-3.842,88.361h-4.98c-2.42-14-4.838-39.715-7.257-66.164l-9.96,66.164h-4.7C2242.692,1345.249,2243.483,1314.092,2247.325,1284.211Z" transform="translate(-2152.218 -1176.601)" fill="#1c417c"/>
      <path id="Trazado_629376" data-name="Trazado 629376" d="M2285.653,1163.148s1.281-34.149-.142-37.849c-1.034-2.689-6.83-7.114-14.514-7.114s-12.948,5.834-13.517,8.537-.711,36.426-.711,36.426Z" transform="translate(-2161.661 -1055.538)" fill="#ce3e76"/>
      <path id="Trazado_629377" data-name="Trazado 629377" d="M2215.263,1625.589v-1.138c4.174-1.062,7.418-2.372,9.533-3.984a3.058,3.058,0,0,0,3.7,0,3.356,3.356,0,0,1,.854,1.565,19.619,19.619,0,0,1-.285,3.557h-2.7v-1.138C2223.495,1625.595,2219.488,1625.693,2215.263,1625.589Z" transform="translate(-2131.396 -1421.792)" fill="#16336d"/>
      <path id="Trazado_629378" data-name="Trazado 629378" d="M2349.217,1275.8a24.351,24.351,0,0,0-4.269,1.423c-.854.569-4.269,1.85-4.127,2.561s3.131,2.988,5.692,3.13,5.549-4.553,5.549-4.553Z" transform="translate(-2222.947 -1170.471)" fill="#ffba9f"/>
      <path id="Trazado_629379" data-name="Trazado 629379" d="M2335.579,1125.015s22.339,1.85,26.466,17.075-14.087,26.893-14.087,26.893L2343.69,1165s10.1-12.663,8.679-18.355-14.229-7.684-14.229-7.684Z" transform="translate(-2219.128 -1060.518)" fill="#ce3e76"/>
    </g>
    <g id="Grupo_901182" data-name="Grupo 901182" transform="translate(599.293 759.424)">
      <path id="Trazado_629380" data-name="Trazado 629380" d="M1539.761,1864.24h1.51l12.283-35.468H1549.5Z" transform="translate(-1539.761 -1780.111)" fill="#192e60"/>
      <path id="Trazado_629381" data-name="Trazado 629381" d="M1752.848,1864.24h-1.51l-12.283-35.468h4.053Z" transform="translate(-1685.082 -1780.111)" fill="#192e60"/>
      <g id="Grupo_901177" data-name="Grupo 901177" transform="translate(9.165 71.635)">
        <rect id="Rectángulo_302062" data-name="Rectángulo 302062" width="6.062" height="4.041" transform="translate(8.617 8.283) rotate(-7.384)" fill="#ffb68e"/>
        <path id="Trazado_629382" data-name="Trazado 629382" d="M1583.542,1925.876a12.253,12.253,0,0,1-1.13-2.33c-.181-.968.576-2.045.377-2.428s-4.255-3.545-4.255-3.545l-2.011-3.448a1.048,1.048,0,0,0-1.225-.47l-.7.223h0l-1,.319,2.075,6.49,1.946,3.5-.749.24,1.357,4.243,1.747-.558h0C1581.293,1927.7,1583.657,1926.224,1583.542,1925.876Z" transform="translate(-1573.604 -1913.605)" fill="#16336d"/>
      </g>
      <path id="Trazado_629383" data-name="Trazado 629383" d="M1710.539,1906.355c-3.154.606-44.524-5.217-44.524-5.217l-45.495,3.154-.607-5.1,45.1-10.191,44.568-5.616S1712.013,1906.072,1710.539,1906.355Z" transform="translate(-1598.207 -1819.938)" fill="#312254"/>
      <rect id="Rectángulo_302063" data-name="Rectángulo 302063" width="3.746" height="5.273" transform="translate(51.313 40.992) rotate(-79.543)" fill="#ffba9f"/>
      <path id="Trazado_629384" data-name="Trazado 629384" d="M1799.646,1746.433c1.383,2.894-13.94,16.315-20.369,18.7s-34.552-7.873-34.552-7.873l-.239-5.054s23.42,3.77,31.424,3.385c5.007-6.952,16.733-16.861,16.733-16.861C1794.845,1737.713,1798.263,1743.539,1799.646,1746.433Z" transform="translate(-1689.042 -1714.37)" fill="#f7d157"/>
      <path id="Trazado_629385" data-name="Trazado 629385" d="M1707.334,1789.374c-1.193,1.06-4.437-.546-5.392-.427s-4.932,1.127-5.778,0,4.964-4.019,5.637-4.087,4.208-.126,5.136.67C1707.613,1786.11,1708.387,1788.438,1707.334,1789.374Z" transform="translate(-1653.746 -1748.065)" fill="#ffba9f"/>
      <g id="Grupo_901178" data-name="Grupo 901178" transform="translate(38.096 74.397)">
        <rect id="Rectángulo_302064" data-name="Rectángulo 302064" width="6.062" height="4.041" transform="translate(9.992 6.128) rotate(-45.392)" fill="#ffb68e"/>
        <path id="Trazado_629386" data-name="Trazado 629386" d="M1694.331,1931.752a12.3,12.3,0,0,1-2-1.648c-.568-.8-.328-2.1-.669-2.364s-5.345-1.449-5.345-1.449l-3.265-2.3a1.048,1.048,0,0,0-1.309.083l-.541.493h0l-.775.706,4.59,5.035,3.229,2.375-.581.53,3,3.292,1.355-1.236h0C1693.045,1934.343,1694.581,1932.019,1694.331,1931.752Z" transform="translate(-1680.431 -1923.803)" fill="#16336d"/>
      </g>
      <g id="Grupo_901180" data-name="Grupo 901180" transform="translate(95.594 0)">
        <path id="Trazado_629387" data-name="Trazado 629387" d="M1924.153,1711.736l3.1-.282c1.84-.141,2.016-1.847,1.874-3.686l-.467-8.415-6.663.512.467,8.415C1922.6,1710.12,1922.313,1711.878,1924.153,1711.736Z" transform="translate(-1914.072 -1685.741)" fill="#ffba9f"/>
        <path id="Trazado_629388" data-name="Trazado 629388" d="M1929.037,1706.2l-6.7-.184-.341-6.146,6.663-.512Z" transform="translate(-1914.072 -1685.741)" fill="#f3937a"/>
        <g id="Grupo_901179" data-name="Grupo 901179">
          <path id="Trazado_629389" data-name="Trazado 629389" d="M1905.64,1688.552a13.637,13.637,0,0,0,4.365-1.031c1.13-.42,4.675-1.948,4.961-5.012l.81-5.708-10.549-1.055a21.558,21.558,0,0,0-2.407,7.543C1902.617,1686.808,1903.1,1688.315,1905.64,1688.552Z" transform="translate(-1900.06 -1668.527)" fill="#ffba9f"/>
          <path id="Trazado_629390" data-name="Trazado 629390" d="M1927.177,1657.621a10.083,10.083,0,0,0-7.578-2.818c-2.431.113-4.98,6.886-3.847,7.776a7.2,7.2,0,0,0,3.138,1.2c.733.078.656,1,.462,1.752a.77.77,0,0,0,.787.954l.657-.031a35.381,35.381,0,0,0,3.043,2.4c.6.141,3.668-4.815,4.087-5.7S1928.868,1659.161,1927.177,1657.621Z" transform="translate(-1909.318 -1653.247)" fill="#2f2a4f"/>
          <path id="Trazado_629391" data-name="Trazado 629391" d="M1932.636,1696.714h0a.081.081,0,0,1-.062-.1l.741-3.476a.737.737,0,0,1,.875-.568l.38.081a.985.985,0,0,1,.758,1.168l-.283,1.327A2.03,2.03,0,0,1,1932.636,1696.714Z" transform="translate(-1921.785 -1680.787)" fill="#ffba9f"/>
          <path id="Trazado_629392" data-name="Trazado 629392" d="M1892.955,1652.33c-1.149,4.6,2.483,5.748,7.125,7.006s8.979.16,9.687-2.452-2.483-5.747-7.125-7.005S1893.912,1648.5,1892.955,1652.33Z" transform="translate(-1892.741 -1649.092)" fill="#2f2a4f"/>
        </g>
      </g>
      <path id="Trazado_629393" data-name="Trazado 629393" d="M1913.636,1747.386c-.142-1.24-2.8-18.7-12.6-16.045-11.97,3.239-11.657,16.258-12.111,22.39-.509,6.886-.563,22.813-.563,22.813l29.9,1.886C1918.069,1772.856,1913.987,1750.451,1913.636,1747.386Z" transform="translate(-1793.956 -1708.867)" fill="#f7d157"/>
      <rect id="Rectángulo_302065" data-name="Rectángulo 302065" width="3.959" height="5.787" transform="translate(141.55 77.072) rotate(-23.841)" fill="#ffc1a9"/>
      <g id="Grupo_901181" data-name="Grupo 901181" transform="translate(16.442 21.94)">
        <path id="Trazado_629394" data-name="Trazado 629394" d="M1623.924,1817.627l26.6-.167a1.023,1.023,0,0,0,1.017-1.029h0a1.023,1.023,0,0,0-1.029-1.016l-26.6.167a1.023,1.023,0,0,0-1.016,1.029h0A1.023,1.023,0,0,0,1623.924,1817.627Z" transform="translate(-1616.823 -1792.311)" fill="#16336d"/>
        <path id="Trazado_629395" data-name="Trazado 629395" d="M1600.5,1731.3l6.284,22.971a.974.974,0,0,0,1.228.614h0a.974.974,0,0,0,.745-1.154l-6.284-22.971a.974.974,0,0,0-1.228-.614h0A.974.974,0,0,0,1600.5,1731.3Z" transform="translate(-1600.472 -1730.104)" fill="#16336d"/>
      </g>
      <path id="Trazado_629396" data-name="Trazado 629396" d="M1930.189,1735.194c5.492.282,23.939,24.644,23.939,24.644l11.406,31.121-4.365,1.127s-10.421-16.054-14.927-24.644c-8.59-3.521-24.08-16.757-24.08-16.757S1927.484,1735.056,1930.189,1735.194Z" transform="translate(-1818.6 -1711.875)" fill="#f7d157"/>
      <path id="Trazado_629397" data-name="Trazado 629397" d="M1798.9,1833.727c-4.084-3.8-36.895-18.87-41.4-18.025s-29.147,31.811-29.288,32.233,3.834,4.027,4.257,3.887,25.313-19.081,26.439-20.348c.845,1.83,16.535,19.009,20.419,22.158,5.211,4.224,15.631,5.069,20.278-.7A14.319,14.319,0,0,0,1798.9,1833.727Z" transform="translate(-1677.172 -1770.556)" fill="#462a51"/>
      <path id="Trazado_629398" data-name="Trazado 629398" d="M1949.926,1813.564l.314-.63a52.121,52.121,0,0,1-13.686-10.263l-.506.49A52.862,52.862,0,0,0,1949.926,1813.564Z" transform="translate(-1828.726 -1761.078)" fill="#ee993c"/>
      <path id="Trazado_629399" data-name="Trazado 629399" d="M1888.179,1774.027l.7-.028c-.4-10.114.968-16.649,4.2-19.977l-.505-.49C1889.2,1757.006,1887.766,1763.71,1888.179,1774.027Z" transform="translate(-1793.771 -1725.248)" fill="#ee993c"/>
      <rect id="Rectángulo_302066" data-name="Rectángulo 302066" width="58.427" height="4.283" transform="translate(4.698 46.776)" fill="#ee7030"/>
      <path id="Trazado_629400" data-name="Trazado 629400" d="M2070.9,1944.828c1-1.195,2.377-.7,3.7.4s6.142,2.03,5.4,4.309-7.182.074-8.5-1.03S2069.9,1946.023,2070.9,1944.828Z" transform="translate(-1926.618 -1864.232)" fill="#ffc1a9"/>
      <path id="Trazado_629401" data-name="Trazado 629401" d="M2063.942,1948.735c-.442-.309-1.09.311-1.721,1.213s-3.532,3.5-2.577,3.589c1.165.107,2.481-1.108,3.836-2.032C2064.409,1950.713,2064.384,1949.044,2063.942,1948.735Z" transform="translate(-1918.71 -1867.527)" fill="#ffc1a9"/>
    </g>
    <g id="Grupo_901184" data-name="Grupo 901184" transform="translate(493.358 695.486)">
      <rect id="Rectángulo_302067" data-name="Rectángulo 302067" width="4.598" height="8.892" transform="translate(16.274 14.627)" fill="#ffba9f"/>
      <path id="Trazado_629402" data-name="Trazado 629402" d="M1322.743,1571.285c-.127,1.021,1.3,1.535,3.141,1.764a8.047,8.047,0,0,0,5.867-2.335c1.134-1.34-3.867-.161-5.708-.39S1322.87,1570.265,1322.743,1571.285Z" transform="translate(-1275.575 -1527.527)" fill="#ffba9f"/>
      <g id="Grupo_901183" data-name="Grupo 901183" transform="translate(32.054 26.469)">
        <path id="Trazado_629403" data-name="Trazado 629403" d="M1321.438,1527.115h-25.958l6.1-16.378h25.957Z" transform="translate(-1287.755 -1510.737)" fill="#16336d"/>
        <path id="Trazado_629404" data-name="Trazado 629404" d="M1323.756,1528.525h-23.784l5.592-15.007h23.784Z" transform="translate(-1291.03 -1512.765)" fill="#d9faff"/>
        <path id="Trazado_629405" data-name="Trazado 629405" d="M1300.638,1564.367h-32.756a.927.927,0,0,0,0,1.854h32.756a.927.927,0,1,0,0-1.854Z" transform="translate(-1266.955 -1549.843)" fill="#16336d"/>
      </g>
      <path id="Trazado_629406" data-name="Trazado 629406" d="M1222.8,1529.438l-.107-2.2-2.018.1-14.134-1.113-5.845-6.052c-.891-1.164-6.732,3.667-5.842,4.83,0,0,9.591,5.98,9.617,6.007.506.514,16.5-1.477,16.5-1.477Z" transform="translate(-1182.256 -1491.013)" fill="#ffba9f"/>
      <path id="Trazado_629407" data-name="Trazado 629407" d="M1292.305,1546.142c-.016-1.187,1.025-1.588,2.338-1.606s3.261,1.769,3.964,3.457-2.734-.329-4.047-.311S1292.322,1547.329,1292.305,1546.142Z" transform="translate(-1253.386 -1508.913)" fill="#ffba9f"/>
      <path id="Trazado_629408" data-name="Trazado 629408" d="M1168.347,1748.515a142.982,142.982,0,0,0,2.774,18.938,45.412,45.412,0,0,0-4.72,8.789c-1.245,3.736-4.971,26.358-4.971,26.358l1.566.883,13.38-30.776,2.491-13.7-2.491-13.7Z" transform="translate(-1157.954 -1655.311)" fill="#fba587"/>
      <path id="Trazado_629409" data-name="Trazado 629409" d="M1221.027,1745.306s-1.245,14.947-2.491,26.156-4.223,34.6-4.223,34.6l-2.037-.635s-2.459-24-2.459-27.74,1.246-9.964,1.246-13.7S1209,1747.8,1209,1747.8Z" transform="translate(-1192.642 -1655.311)" fill="#ffba9f"/>
      <path id="Trazado_629410" data-name="Trazado 629410" d="M1192.187,1492.355h3.025c3.4,0,7.315,3.206,8.5,4.388a12.663,12.663,0,0,1,2.525,3.365c1.111,2.715.952,3.972-.294,6.463a5.734,5.734,0,0,1-.723,1.087v19.572h-16.192v-31.713A3.162,3.162,0,0,1,1192.187,1492.355Z" transform="translate(-1178.076 -1470.864)" fill="#f7d157"/>
      <path id="Trazado_629411" data-name="Trazado 629411" d="M1172.564,1604.475a31.428,31.428,0,0,0-6.045,18.486,129.815,129.815,0,0,0,4.93,25.881l18.486-1.233s2.465-20.951,1.233-28.346-2.348-14.789-2.348-14.789Z" transform="translate(-1161.665 -1552.62)" fill="#16336d"/>
      <path id="Trazado_629412" data-name="Trazado 629412" d="M1222.647,1970.528l-2.96-2.806.764-.759a3.5,3.5,0,0,1,1.987.759,26.148,26.148,0,0,0,4.169,3.126Z" transform="translate(-1200.435 -1816.939)" fill="#fba587"/>
      <path id="Trazado_629413" data-name="Trazado 629413" d="M1224.653,1969.612a5.52,5.52,0,0,1-.834-.287.11.11,0,0,0-.112.012,1.548,1.548,0,0,1-.813.123,2.414,2.414,0,0,1-1.487-.779,47.733,47.733,0,0,0-3.655-3.117.11.11,0,0,0-.157.024c-1.1,1.57-.64,2.351-.617,2.382a3.018,3.018,0,0,1,.432,2.407.116.116,0,0,0,.022.084.11.11,0,0,0,.076.042l.463.043a.11.11,0,0,0,.12-.1l.116-1.254a.608.608,0,0,1,.224-.5.44.44,0,0,1,.38.007,6.106,6.106,0,0,1,1.74,1.444,2.4,2.4,0,0,0,1.728.8,19.068,19.068,0,0,0,3.418-.179.11.11,0,0,0,.094-.1C1225.849,1970.16,1225.242,1969.765,1224.653,1969.612Z" transform="translate(-1198.375 -1815.903)" fill="#2f2a4f"/>
      <path id="Trazado_629414" data-name="Trazado 629414" d="M1161.651,1960.5l-1.71-3.7.991-.422a3.506,3.506,0,0,1,1.564,1.441,26.17,26.17,0,0,0,2.713,4.448Z" transform="translate(-1156.869 -1809.216)" fill="#fba587"/>
      <path id="Trazado_629415" data-name="Trazado 629415" d="M1161.108,1960.426a5.544,5.544,0,0,1-.668-.575.11.11,0,0,0-.109-.03,1.553,1.553,0,0,1-.8-.187,2.413,2.413,0,0,1-1.092-1.275,47.9,47.9,0,0,0-2.24-4.249.111.111,0,0,0-.07-.051.109.109,0,0,0-.085.015c-1.6,1.051-1.466,1.947-1.456,1.984a3.017,3.017,0,0,1-.491,2.4.117.117,0,0,0-.011.086.11.11,0,0,0,.056.067l.414.212a.11.11,0,0,0,.148-.048l.573-1.122c.12-.234.252-.363.395-.383a.438.438,0,0,1,.35.147,6.109,6.109,0,0,1,1.081,1.986,2.394,2.394,0,0,0,1.308,1.383,19.061,19.061,0,0,0,3.241,1.1.11.11,0,0,0,.123-.054C1162.016,1961.379,1161.6,1960.787,1161.108,1960.426Z" transform="translate(-1152.595 -1807.527)" fill="#2f2a4f"/>
      <path id="Trazado_629416" data-name="Trazado 629416" d="M1249.927,1542.345l-18.545-1.362-4.07-9.36s-6.182,1.731-6.17,3.894c2.053,2.865,6.422,9.173,6.431,9.195.324.8,23.28-.2,23.28-.2Z" transform="translate(-1201.496 -1499.498)" fill="#ffba9f"/>
      <path id="Trazado_629417" data-name="Trazado 629417" d="M1211.078,1434.038c1.4,3.92,1.1,7.265-1.354,7.625s-5.547-1.248-7.351-5.108c-1.623-3.471.98-7.157,3.433-7.518S1209.788,1430.43,1211.078,1434.038Z" transform="translate(-1187.441 -1424.66)" fill="#ffba9f"/>
      <path id="Trazado_629418" data-name="Trazado 629418" d="M1148.741,1452.124c-1.131-7.161,4.778-10.589,5.276-15.075s-.611-12.992,1.383-17.976,5.982-6.48,9.471-5.982,7.477,1.994,7.477,4.985-4.486,6.48-4.486,6.48.1,9.149.1,15.131c0,5.506-4.087,17.768-7.078,19.762S1149.871,1459.285,1148.741,1452.124Z" transform="translate(-1148.597 -1413)" fill="#152753"/>
    </g>
    <g id="Grupo_901188" data-name="Grupo 901188" transform="translate(303.932 768.052)">
      <g id="Grupo_901185" data-name="Grupo 901185" transform="translate(38.192 13.411)">
        <path id="Trazado_629419" data-name="Trazado 629419" d="M590.493,1777.433c-1.571-1.433,2.714-18.372,9.417-31.544s9.578-16.745,16.409-15.013c7.429,1.883,10.322,12.463,3.619,25.635S593.63,1780.295,590.493,1777.433Z" transform="translate(-590.168 -1730.469)" fill="#f7d157"/>
        <path id="Trazado_629420" data-name="Trazado 629420" d="M595.184,1780.522c18.268-14.793,27.164-29.793,26.438-44.583l.688.053a36.364,36.364,0,0,1-1.488,12.086,47.358,47.358,0,0,1-5.3,11.558c-4.436,7.124-11.114,14.322-19.847,21.394Z" transform="translate(-593.826 -1734.458)" fill="#f1b846"/>
      </g>
      <g id="Grupo_901186" data-name="Grupo 901186" transform="translate(18.567 0)">
        <path id="Trazado_629421" data-name="Trazado 629421" d="M539.077,1747.278c-2.714-.123-13.075-19.792-17.926-37.774s-5.163-23.7,2.807-27.484c8.667-4.114,20.433,3.732,25.284,21.714S544.5,1747.524,539.077,1747.278Z" transform="translate(-517.701 -1680.949)" fill="#5492ee"/>
        <path id="Trazado_629422" data-name="Trazado 629422" d="M562.819,1746.379c4.763-28.755.438-50.238-12.855-63.852l.7-.5a47.72,47.72,0,0,1,8.884,12.784,59.876,59.876,0,0,1,4.807,15.317c1.853,10.372,1.638,22.6-.639,36.347Z" transform="translate(-541.227 -1681.736)" fill="#9dd7fc"/>
      </g>
      <g id="Grupo_901187" data-name="Grupo 901187" transform="translate(0 23.577)">
        <path id="Trazado_629423" data-name="Trazado 629423" d="M491.024,1805.157c-1.549,1.252-17.112-5.5-28.809-13.934s-14.742-11.715-12.276-17.882c2.681-6.706,13.072-7.742,24.768.69S494.117,1802.656,491.024,1805.157Z" transform="translate(-449.144 -1768.008)" fill="#cc0d56"/>
        <path id="Trazado_629424" data-name="Trazado 629424" d="M495.714,1812.954c-11.844-19.6-25.012-30.394-39.138-32.078l.133-.641A35.934,35.934,0,0,1,468,1783.575a47.966,47.966,0,0,1,10.333,6.853c6.228,5.325,12.257,12.777,17.919,22.148Z" transform="translate(-454.563 -1776.924)" fill="#fff"/>
      </g>
      <path id="Trazado_629425" data-name="Trazado 629425" d="M572.5,1908.8H555.185a3.909,3.909,0,0,1-3.909-3.909v-10.75h25.129v10.75A3.909,3.909,0,0,1,572.5,1908.8Z" transform="translate(-523.617 -1836.402)" fill="#f1b846"/>
      <rect id="Rectángulo_302068" data-name="Rectángulo 302068" width="27.642" height="4.188" rx="2.094" transform="translate(26.403 55.641)" fill="#ee993c"/>
    </g>
    <g id="Grupo_901193" data-name="Grupo 901193" transform="translate(253.201 686.263)">
      <rect id="Rectángulo_302069" data-name="Rectángulo 302069" width="2.308" height="5.322" transform="translate(13.931 74.494) rotate(-33.875)" fill="#fcbba7"/>
      <rect id="Rectángulo_302070" data-name="Rectángulo 302070" width="5.741" height="3.371" transform="translate(80.907 39.383) rotate(-18.208)" fill="#fcbba7"/>
      <path id="Trazado_629426" data-name="Trazado 629426" d="M397.327,1441.884l-5.311.6-.93-10.724,5.2-.535Z" transform="translate(-356.077 -1417.067)" fill="#fcbba7"/>
      <path id="Trazado_629427" data-name="Trazado 629427" d="M448.911,1927.3h3.066v-4.532h-3.466Z" transform="translate(-397.951 -1775.486)" fill="#fcbba7"/>
      <path id="Trazado_629428" data-name="Trazado 629428" d="M374.3,1927.3h-3.066v-4.532H374.7Z" transform="translate(-341.6 -1775.486)" fill="#fcbba7"/>
      <path id="Trazado_629429" data-name="Trazado 629429" d="M337.267,1940.36v-1.067c3.911-.995,6.95-2.223,8.931-3.732a2.866,2.866,0,0,0,3.466,0,3.145,3.145,0,0,1,.8,1.466,18.4,18.4,0,0,1-.267,3.332h-2.533v-1.067C344.979,1940.365,341.226,1940.457,337.267,1940.36Z" transform="translate(-316.834 -1784.818)" fill="#272f56"/>
      <path id="Trazado_629430" data-name="Trazado 629430" d="M383.525,1620.532H356.464c.092,24.488,1.315,52.6,3.6,82.783h4.666c2.267-13.112,4.533-37.208,6.8-61.987l9.332,61.987h4.4C387.866,1677.717,387.124,1648.526,383.525,1620.532Z" transform="translate(-330.832 -1555.104)" fill="#24487c"/>
      <path id="Trazado_629431" data-name="Trazado 629431" d="M355.129,1507.111s-1.2-31.994.133-35.459c.969-2.519,6.4-6.666,13.6-6.666s12.131,5.466,12.664,8,.667,34.126.667,34.126Z" transform="translate(-329.497 -1441.683)" fill="#ee993c"/>
      <path id="Trazado_629432" data-name="Trazado 629432" d="M459.667,1940.36v-1.067c-3.911-.995-6.95-2.223-8.931-3.732a2.866,2.866,0,0,1-3.466,0,3.145,3.145,0,0,0-.8,1.466,18.375,18.375,0,0,0,.267,3.332h2.533v-1.067C451.954,1940.365,455.708,1940.457,459.667,1940.36Z" transform="translate(-396.442 -1784.818)" fill="#272f56"/>
      <path id="Trazado_629433" data-name="Trazado 629433" d="M575.047,1516.405c.914-1.095,3.013-.578,3.9-.441s6.561,1.217,6.71,1.832-2.485,2.237-4.722,2.734c-2.182.485-7.195-1.055-7.195-1.055A8.281,8.281,0,0,1,575.047,1516.405Z" transform="translate(-489.263 -1478.68)" fill="#fcbba7"/>
      <path id="Trazado_629434" data-name="Trazado 629434" d="M313.874,1471.386s-20.541,4.692-24.407,18.955,3.7,28.74,3.7,28.74l3.832-.273s-.785-17.66.548-22.993,13.933-11.366,13.933-11.366Z" transform="translate(-281.176 -1446.35)" fill="#ee993c"/>
      <path id="Trazado_629435" data-name="Trazado 629435" d="M409.652,1489.387s3.293,5.253,16.25,12.361c11.13,6.106,27.915-6.668,27.915-6.668l-2.545-4.842s-13.941,6-18.732,3.308-14.135-14.275-14.135-14.275Z" transform="translate(-369.616 -1452.1)" fill="#ee993c"/>
      <g id="Grupo_901189" data-name="Grupo 901189" transform="translate(30.846 0)">
        <path id="Trazado_629436" data-name="Trazado 629436" d="M397.952,1404.41s3.722,10.752-.412,12.47-8.709-4.085-8.709-4.085l-.782-8.117Z" transform="translate(-384.71 -1397.512)" fill="#fcbba7"/>
        <path id="Trazado_629437" data-name="Trazado 629437" d="M378.885,1403l1.622-.247.519-5.359-1.372-2.637s.579-1.539-.852-1.635-3.008,1.945-3.08,3.894C375.582,1400.8,378.885,1403,378.885,1403Z" transform="translate(-375.718 -1389.28)" fill="#462a51"/>
        <path id="Trazado_629438" data-name="Trazado 629438" d="M386.114,1425.223l.153-.023-.637-4.174-1.152.176a.874.874,0,0,0-.732,1l.221,1.449A1.883,1.883,0,0,0,386.114,1425.223Z" transform="translate(-381.565 -1409.629)" fill="#fcbba7"/>
        <path id="Trazado_629439" data-name="Trazado 629439" d="M383.583,1385.9c.289,2.036,2.983,3.338,10.183,1.06,4.249-1.344,5.212-5.153,4.043-6.845-1.579-2.284-4.366-.633-8.779-.006S383.293,1383.861,383.583,1385.9Z" transform="translate(-381.425 -1378.942)" fill="#462a51"/>
      </g>
      <g id="Grupo_901192" data-name="Grupo 901192" transform="translate(0 76.939)">
        <path id="Trazado_629440" data-name="Trazado 629440" d="M307.744,1664.974a.778.778,0,0,1-.2-.026c-1.812-.476-4.242-.333-6.847-.316s-5.036-.1-6.842.4a.783.783,0,0,1-.417-1.51c1.935-.535,4.511-.443,7.25-.46s5.313-.142,7.255.368a.783.783,0,0,1-.193,1.541Z" transform="translate(-284.452 -1663.04)" fill="#462a51"/>
        <g id="Grupo_901190" data-name="Grupo 901190" transform="translate(8.407 0.368)">
          <path id="Trazado_629441" data-name="Trazado 629441" d="M293.637,1664.731h0a.783.783,0,0,0-.778.788l.039,6.059,1.566-.01-.039-6.059A.783.783,0,0,0,293.637,1664.731Z" transform="translate(-292.859 -1664.641)" fill="#f1b846"/>
          <path id="Trazado_629442" data-name="Trazado 629442" d="M345.69,1664.4h0a.783.783,0,0,0-.778.788l.039,6.059,1.566-.01-.039-6.059A.783.783,0,0,0,345.69,1664.4Z" transform="translate(-330.815 -1664.399)" fill="#f1b846"/>
        </g>
        <g id="Grupo_901191" data-name="Grupo 901191" transform="translate(0 5.672)">
          <path id="Trazado_629443" data-name="Trazado 629443" d="M294.356,1740.432l-25.814.165a2.244,2.244,0,0,1-2.259-2.23l-.068-10.658,30.3-.194.068,10.658A2.245,2.245,0,0,1,294.356,1740.432Z" transform="translate(-265.024 -1715.726)" fill="#462a51"/>
          <path id="Trazado_629444" data-name="Trazado 629444" d="M291.079,1697.47l-25.815.165a3.367,3.367,0,0,1-3.389-3.346l-.057-8.984a1.122,1.122,0,0,1,1.115-1.129l30.3-.194a1.122,1.122,0,0,1,1.129,1.115l.058,8.984A3.368,3.368,0,0,1,291.079,1697.47Z" transform="translate(-261.818 -1683.982)" fill="#f7d157"/>
          <path id="Trazado_629445" data-name="Trazado 629445" d="M294.306,1732.547a4.461,4.461,0,0,0,2.241-.622l-.009-1.378a3.348,3.348,0,0,1-2.239.877l-25.814.165a3.352,3.352,0,0,1-2.25-.848l.009,1.377a4.453,4.453,0,0,0,2.249.593l25.814-.165Z" transform="translate(-265.038 -1717.937)" fill="#16336d"/>
          <path id="Trazado_629446" data-name="Trazado 629446" d="M317.838,1731.761l-3.367.021a.561.561,0,0,1-.565-.557l-.018-2.806a.561.561,0,0,1,.558-.565l3.367-.022a.561.561,0,0,1,.565.558l.018,2.806A.561.561,0,0,1,317.838,1731.761Z" transform="translate(-299.786 -1715.957)" fill="#ee7030"/>
          <path id="Trazado_629447" data-name="Trazado 629447" d="M320.317,1734.806l-2.245.014-.015-2.245a.561.561,0,0,1,.558-.565l1.122-.007a.561.561,0,0,1,.565.558Z" transform="translate(-302.827 -1718.999)" fill="#fff666"/>
        </g>
      </g>
      <path id="Trazado_629448" data-name="Trazado 629448" d="M309.319,1646.521a21.237,21.237,0,0,1,1.907,3.427c.214.868.84,4.474.329,4.847s-3.014-.078-4.744-1.494-.828-6.809-.828-6.809Z" transform="translate(-293.851 -1574.035)" fill="#fcbba7"/>
    </g>
  </g>
</svg>
